<svg width="72" height="72" viewBox="0 0 72 72" xmlns="http://www.w3.org/2000/svg">
    <defs>
        <clipPath id="238vb8tmqa">
            <path d="M750 0v1624H0V0h750z"/>
        </clipPath>
        <clipPath id="w4o9b9j7jb">
            <path d="M36 0c19.882 0 36 16.118 36 36S55.882 72 36 72 0 55.882 0 36 16.118 0 36 0z"/>
        </clipPath>
        <clipPath id="jct40sz5oc">
            <path d="M40.874 38.703c.342.436.778.752 1.306.949.517.192 1.127.266 1.83.22-2.608 5.58-7.644 8.176-14.776 7.788a5 5 0 1 1 .726-3.301c5.42.175 8.966-1.71 10.914-5.656zM7.5 17.5c.92 0 1.667.746 1.667 1.667v15c0 .92-.747 1.666-1.667 1.666H1.667c-.92 0-1.667-.746-1.667-1.666v-15c0-.92.746-1.667 1.667-1.667H7.5zm40.833 0c.92 0 1.667.746 1.667 1.667v15c0 .92-.746 1.666-1.667 1.666H42.5c-.92 0-1.667-.746-1.667-1.666v-15c0-.92.747-1.667 1.667-1.667h5.833zm-28.422.082c2.566 0 3.849 1.067 3.849 3.203v2.377c0 .86-.142 1.597-.426 2.208-.284.612-.745 1.27-1.382 1.977l-3.204 3.59h4.179c.46 0 .833.374.833.834v1.562c0 .46-.373.834-.833.834H13.95a.833.833 0 0 1-.833-.834V31.55c0-.211.08-.414.223-.568l4.685-5.03c.517-.534.861-.995 1.033-1.382.173-.388.259-.866.259-1.434v-1.757c0-.379-.216-.568-.646-.568h-.517c-.43 0-.646.19-.646.568v1.053c0 .46-.373.833-.833.833h-2.854a.833.833 0 0 1-.833-.833v-1.647c0-2.136 1.265-3.203 3.797-3.203zm14.1 0a.833.833 0 0 1 .7 1.285l-5.836 9.048h2.738v-2.447c0-.46.373-.834.834-.834h2.57c.46 0 .833.373.833.834v2.447h.923c.46 0 .834.373.834.833v1.614c0 .46-.373.834-.834.834h-.923v2.137c0 .46-.373.834-.833.834h-2.57a.833.833 0 0 1-.834-.834v-2.137h-6.012a.833.833 0 0 1-.834-.834v-2.924c0-.16.047-.318.134-.453l5.846-9.023a.833.833 0 0 1 .7-.38zM25 0c9.76 0 16.49 5.036 19.756 14.696l.121.364c-1.025-.04-1.886.048-2.584.267-.697.218-1.42.645-2.17 1.28C37.559 8.727 32.668 5 25 5 17.448 5 12.59 8.614 9.995 16.251l-.118.356c-.806-.62-1.542-1.047-2.209-1.28-.666-.233-1.515-.322-2.545-.267C8.343 5.163 15.118 0 25 0z"/>
        </clipPath>
        <clipPath id="2mdq24un3d">
            <path d="M72 0v72H0V0h72z"/>
        </clipPath>
    </defs>
    <g clip-path="url(#238vb8tmqa)" transform="translate(-62 -372)">
        <g clip-path="url(#w4o9b9j7jb)" transform="translate(62 372)">
            <g clip-path="url(#jct40sz5oc)" transform="translate(11 11)">
                <path fill="#FFF" d="M0 0h50v50H0V0z"/>
                <g clip-path="url(#2mdq24un3d)" transform="translate(-11 -11)">
                    <path fill="#FFF" d="M11 11h50v50H11V11z"/>
                </g>
            </g>
        </g>
    </g>
</svg>
